PathFileType	4	(X/Y/Z)	 s08c0101.trc
DataRate	CameraRate	NumFrames	NumMarkers	Units	OrigDataRate	OrigDataStartFrame	OrigNumFrames
200	200	7	50	mm	200	251	2000
Frame#	Time	racr			lacr			c7			jug			rlel			rdr			llel			ldr			s2			lic			ric			lasi			rasi			rpsi			lpsi			rgt			lgt			rth1			rth2			rth3			rth4			rlfc			rmfc			rsh1			rsh2			rsh3			rsh4			rlmal			rmmal			rcal			rtoe			rmt5			lth1			lth2			lth4			lth3			llfc			lmfc			llmal			lmmal			lcal			lmt5			lsh1			lsh2			lsh3			lsh4			ltoe			SBIKE			LBIKE			RBIKE			
		X1	Y1	Z1	X2	Y2	Z2	X3	Y3	Z3	X4	Y4	Z4	X5	Y5	Z5	X6	Y6	Z6	X7	Y7	Z7	X8	Y8	Z8	X9	Y9	Z9	X10	Y10	Z10	X11	Y11	Z11	X12	Y12	Z12	X13	Y13	Z13	X14	Y14	Z14	X15	Y15	Z15	X16	Y16	Z16	X17	Y17	Z17	X18	Y18	Z18	X19	Y19	Z19	X20	Y20	Z20	X21	Y21	Z21	X22	Y22	Z22	X23	Y23	Z23	X24	Y24	Z24	X25	Y25	Z25	X26	Y26	Z26	X27	Y27	Z27	X28	Y28	Z28	X29	Y29	Z29	X30	Y30	Z30	X31	Y31	Z31	X32	Y32	Z32	X33	Y33	Z33	X34	Y34	Z34	X35	Y35	Z35	X36	Y36	Z36	X37	Y37	Z37	X38	Y38	Z38	X39	Y39	Z39	X40	Y40	Z40	X41	Y41	Z41	X42	Y42	Z42	X43	Y43	Z43	X44	Y44	Z44	X45	Y45	Z45	X46	Y46	Z46	X47	Y47	Z47	X48	Y48	Z48	X49	Y49	Z49	X50	Y50	Z50	
251	1.2550	560.879228	1395.932522	-53.949321	573.456106	1402.174010	-389.501979	545.957689	1453.307007	-219.384669	525.663759	1297.817652	-215.676279	636.756135	1147.443085	7.628774	800.477195	886.831935	-49.042367	667.029019	1153.570655	-437.919253	809.523552	891.772385	-393.525043	-0.264721	1212.223956	-232.023756	172.739946	1179.980499	-373.252451	164.448151	1207.693989	-71.945989	186.536099	1124.675447	-339.732214	178.974465	1151.229064	-103.193449	31.338133	1253.881248	-180.611196	38.901636	1248.928190	-277.409233	75.479623	1120.770054	-23.103726	85.077130	1071.038376	-403.967822	209.967736	1027.833984	-15.647677	296.695899	1008.956224	-14.857077	360.582156	949.740758	-15.583427	313.568697	1039.745085	-29.453598	456.277783	874.145528	-35.075147	443.639603	869.697812	-146.875334	358.691791	789.161402	-11.958519	317.975833	711.938239	-36.419107	244.985035	666.798622	-45.700957	340.890327	699.548479	-69.008143	159.140831	587.579807	-61.708099	183.261538	605.451808	-148.330000	73.399640	580.402337	-108.122778	355.145175	499.703135	-105.460544	264.289255	489.836577	-33.789200	129.496771	941.273400	-423.187840	174.789620	866.418568	-419.329454	208.075146	876.095157	-405.329289	174.745779	777.260456	-414.034326	206.281752	655.733203	-390.120594	198.481346	631.356676	-290.503120	205.228147	241.066394	-394.698621	242.492912	272.287139	-325.108087	144.150005	218.518802	-358.079135	348.695110	150.811668	-414.844731	198.281278	529.945271	-420.362954	221.563820	448.857242	-404.661677	205.002621	361.958283	-408.261008	240.663445	452.410917	-370.002537	430.146070	176.770775	-344.332494	-134.700201	947.864336	-223.111220	27.115316	84.351994	-427.419837	19.583151	80.941844	-29.830421	
252	1.2600	560.869529	1395.899757	-53.923648	573.459491	1402.165433	-389.541522	545.958875	1453.315554	-219.422533	525.697478	1297.825855	-215.675250	636.746872	1147.433610	7.597180	800.454193	886.825607	-49.052058	667.056903	1153.578336	-437.828582	809.538583	891.781848	-393.499248	-0.251830	1212.199909	-232.065251	172.761286	1179.947596	-373.270465	164.421627	1207.692765	-71.950789	186.562065	1124.652646	-339.763399	178.976405	1151.234786	-103.196531	31.337159	1253.874514	-180.621631	38.916986	1248.917729	-277.434604	75.467715	1120.783456	-23.119672	85.094926	1071.018651	-403.976783	209.970867	1027.879314	-15.627351	296.724857	1009.004652	-14.861179	360.596296	949.790905	-15.583137	313.567896	1039.809136	-29.426930	456.322740	874.252065	-35.071504	443.711632	869.781675	-146.846061	358.763655	789.232017	-11.963850	318.044717	711.986916	-36.420708	245.092555	666.836529	-45.684773	341.003825	699.616748	-68.952894	159.265056	587.606123	-61.676058	183.375250	605.453921	-148.308360	73.528554	580.401816	-108.129503	355.293123	499.780431	-105.464862	264.446706	489.861904	-33.790296	129.497384	941.262618	-423.185899	174.791103	866.398674	-419.302471	208.058336	876.066453	-405.292912	174.743668	777.235062	-414.008453	206.293270	655.728997	-390.106694	198.468451	631.349407	-290.501478	205.102309	241.047151	-394.679418	242.343789	272.257658	-325.088555	144.025905	218.517437	-358.088987	348.539354	150.768175	-414.840699	198.265665	529.927945	-420.341795	221.529936	448.828388	-404.629740	204.938524	361.962108	-408.248792	240.588079	452.352071	-369.964779	429.998598	176.733226	-344.339371	-134.700247	947.863402	-223.116478	27.115224	84.352207	-427.427722	19.697301	80.632615	-30.095997	
253	1.2650	560.869663	1395.903031	-53.921455	573.469871	1402.171506	-389.563637	545.968173	1453.337877	-219.478589	525.751775	1297.848952	-215.704737	636.698147	1147.402641	7.595082	800.468718	886.830996	-49.031063	667.077544	1153.550312	-437.702251	809.568732	891.762523	-393.496602	-0.250117	1212.218607	-232.073848	172.781513	1179.906402	-373.286275	164.438867	1207.674231	-71.964526	186.561297	1124.641648	-339.760997	178.978347	1151.227909	-103.196287	31.346128	1253.884558	-180.643778	38.935503	1248.902577	-277.469885	75.461246	1120.796843	-23.106486	85.102118	1071.002148	-403.975694	209.985502	1027.912291	-15.638342	296.733844	1009.059625	-14.830818	360.630574	949.853228	-15.571000	313.582089	1039.892329	-29.430088	456.377251	874.363228	-35.058530	443.755192	869.895899	-146.842669	358.817300	789.310850	-11.939703	318.133379	712.053379	-36.422739	245.214547	666.861819	-45.683629	341.098812	699.705660	-68.970023	159.383070	587.635123	-61.642736	183.491599	605.463444	-148.313487	73.637179	580.400838	-108.125718	355.427853	499.842367	-105.455408	264.593459	489.923123	-33.803271	129.512559	941.252500	-423.172172	174.795528	866.374612	-419.284723	208.065964	876.052955	-405.249393	174.752340	777.211196	-413.962068	206.286414	655.704941	-390.091846	198.465115	631.337787	-290.496896	204.974991	241.054027	-394.685961	242.271814	272.240335	-325.104895	143.900842	218.521816	-358.086983	348.393767	150.692855	-414.806475	198.271910	529.868475	-420.292951	221.486261	448.809979	-404.625901	204.875420	361.947673	-408.254150	240.548184	452.356101	-369.963329	429.866501	176.667809	-344.325567	-134.688723	947.865358	-223.115225	27.116971	84.345556	-427.421102	19.696223	80.640529	-30.094552	
254	1.2700	560.871531	1395.862711	-53.910677	573.466501	1402.154017	-389.556934	545.958662	1453.358359	-219.483590	525.769656	1297.835244	-215.687248	636.697404	1147.395853	7.598721	800.443948	886.829613	-49.039848	667.077887	1153.534363	-437.618054	809.566541	891.765691	-393.472998	-0.234729	1212.207557	-232.099089	172.805360	1179.857317	-373.307856	164.456750	1207.681058	-71.986423	186.587487	1124.619144	-339.754369	178.994289	1151.234411	-103.208411	31.345159	1253.877839	-180.654207	38.916593	1248.916724	-277.464182	75.452554	1120.837961	-23.129482	85.105407	1070.999857	-403.990907	209.986803	1027.958209	-15.626040	296.755770	1009.110845	-14.848185	360.652271	949.906811	-15.597020	313.584484	1039.961602	-29.406781	456.417800	874.454431	-35.059108	443.800611	869.992350	-146.814538	358.881494	789.378270	-11.944466	318.228068	712.103763	-36.438536	245.318512	666.901081	-45.676287	341.219771	699.801041	-68.961068	159.657237	587.282599	-61.982595	183.598810	605.460042	-148.293125	73.755002	580.392650	-108.114410	355.571626	499.899262	-105.446180	264.724111	489.971442	-33.800850	129.525799	941.237555	-423.168760	174.804338	866.365854	-419.271943	208.088145	876.051502	-405.228882	174.776008	777.211041	-413.944398	206.310528	655.707515	-390.074585	198.467386	631.321543	-290.476394	204.853248	241.028258	-394.673229	242.170258	272.265421	-325.091046	143.771461	218.529678	-358.085609	348.232162	150.657999	-414.804692	198.222643	529.913804	-420.335932	221.430845	448.791970	-404.605309	204.805324	361.935207	-408.265299	240.483961	452.283197	-369.938636	429.736811	176.601961	-344.307025	-134.686593	947.862154	-223.106953	27.115369	84.349197	-427.422311	19.704480	80.639533	-30.099277	
255	1.2750	560.871517	1395.862764	-53.910697	573.493937	1402.164654	-389.592116	545.963668	1453.384748	-219.533305	525.835333	1297.923686	-215.712982	636.670235	1147.377042	7.607064	800.434100	886.830880	-49.043694	667.057698	1153.520407	-437.532501	809.599621	891.752637	-393.490122	-0.239714	1212.207390	-232.116921	172.825592	1179.816122	-373.323663	164.458722	1207.679455	-72.009301	186.605593	1124.593918	-339.755535	178.999581	1151.244151	-103.219681	31.353577	1253.886375	-180.677014	38.928419	1248.917261	-277.505984	75.449560	1120.862593	-23.121612	85.116705	1070.993318	-403.999090	210.010894	1028.001035	-15.627382	296.769835	1009.171700	-14.844263	360.674570	949.987782	-15.586296	313.584718	1040.009759	-29.409704	456.469452	874.560432	-35.069784	443.857709	870.094660	-146.822151	358.950183	789.454823	-11.937372	318.303040	712.169114	-36.423649	245.419902	666.948279	-45.645366	341.312049	699.865922	-68.936808	159.752346	587.300873	-61.997759	183.727763	605.483919	-148.305663	73.876019	580.400466	-108.112456	355.712343	499.957861	-105.458206	264.885616	489.995272	-33.804131	129.543715	941.235195	-423.165406	174.838423	866.367051	-419.238417	208.099050	876.053880	-405.215970	174.802272	777.208925	-413.890025	206.313333	655.700039	-390.058439	198.465238	631.319016	-290.457303	204.715427	241.045601	-394.688256	242.139698	272.282285	-325.153505	143.641224	218.537828	-358.099157	348.080454	150.607908	-414.825789	198.200775	529.860603	-420.283763	221.371623	448.772734	-404.583858	204.724434	361.933612	-408.251225	240.414552	452.315461	-369.959358	429.593036	176.546087	-344.321991	-134.694014	947.862326	-223.111115	27.117044	84.353179	-427.416366	19.604661	80.913826	-29.841710	
256	1.2800	560.873883	1395.840159	-53.897584	573.497549	1402.157272	-389.600930	545.972020	1453.420272	-219.548567	525.871541	1297.941139	-215.719276	636.653883	1147.361491	7.634530	800.462649	886.840268	-49.020197	667.040903	1153.481264	-437.514514	809.610121	891.767398	-393.455973	-0.249780	1212.235733	-232.124176	172.842127	1179.776085	-373.312203	164.463034	1207.701028	-72.029914	186.627599	1124.570453	-339.761508	178.998711	1151.245504	-103.250673	31.341080	1253.900358	-180.711370	38.902182	1248.927474	-277.516440	75.474959	1120.895927	-23.133685	85.123166	1070.996462	-403.998080	210.004475	1028.066516	-15.613469	296.786596	1009.232128	-14.829448	360.710162	950.049277	-15.584103	313.613725	1040.092156	-29.411155	456.517063	874.665122	-35.078234	443.889752	870.185547	-146.849015	359.027217	789.531987	-11.931279	318.391071	712.254001	-36.413960	245.542372	666.985751	-45.643379	341.419789	699.937960	-68.923741	159.872144	587.320102	-61.985095	183.866322	605.484423	-148.305556	74.000511	580.374359	-108.101706	355.857721	500.019190	-105.460132	264.995042	490.077171	-33.800052	129.567535	941.244155	-423.155802	174.858207	866.393172	-419.234218	208.120891	876.065406	-405.178892	174.834153	777.219346	-413.872671	206.330839	655.718754	-390.056203	198.476453	631.328383	-290.453896	204.596378	241.043233	-394.720149	242.041473	272.271357	-325.142772	143.524527	218.561192	-358.101974	347.946520	150.546336	-414.816508	198.150919	529.926241	-420.332100	221.323269	448.806124	-404.620993	204.639807	361.925826	-408.254005	240.364545	452.291454	-369.987222	429.458786	176.479956	-344.293669	-134.686732	947.859415	-223.116494	27.119657	84.352716	-427.416219	19.579269	80.935658	-29.832067	
257	1.2850	560.881771	1395.832787	-53.866762	573.546113	1402.179369	-389.622059	545.956299	1453.445457	-219.577145	525.887061	1297.978880	-215.743080	636.628296	1147.349196	7.645975	800.451984	886.842166	-49.009808	666.996154	1153.469144	-437.508956	809.621738	891.782062	-393.476965	-0.234319	1212.257704	-232.175476	172.851844	1179.726861	-373.311736	164.450548	1207.732700	-72.059190	186.639761	1124.579311	-339.787266	179.005847	1151.277925	-103.237570	31.338044	1253.915871	-180.720188	38.929747	1248.926241	-277.564163	75.470880	1120.950373	-23.128921	85.131719	1070.999040	-403.997458	210.029528	1028.124221	-15.611706	296.805688	1009.298245	-14.833133	360.716864	950.126008	-15.592311	313.619489	1040.153302	-29.416840	456.567965	874.782584	-35.073799	443.947255	870.262642	-146.865480	359.079867	789.613786	-11.926941	318.469507	712.302203	-36.423007	245.629262	667.024874	-45.634690	341.531946	700.002927	-68.903093	160.000397	587.334670	-61.977880	183.993732	605.510825	-148.294848	74.128857	580.361219	-108.081600	356.013257	500.076009	-105.470708	265.155377	490.117897	-33.803290	129.588226	941.254144	-423.165197	174.908717	866.396554	-419.188764	208.143057	876.082450	-405.159335	174.870084	777.231461	-413.841701	206.344757	655.707022	-390.052807	198.457712	631.321234	-290.438717	204.472832	241.088571	-394.711940	241.954866	272.274676	-325.144304	143.389910	218.577198	-358.101993	347.810396	150.503750	-414.809875	198.132376	529.877992	-420.287456	221.275318	448.823221	-404.604273	204.563656	361.948401	-408.265700	240.322184	452.287203	-369.965666	429.297689	176.449545	-344.334170	-134.688221	947.860224	-223.119404	27.103018	84.349207	-427.412469	19.596704	80.939922	-29.835109	
